<?xml version="1.0" encoding="UTF-8"?><!DOCTYPE svg PUBLIC "-//W3C//DTD SVG 1.1//EN" "http://www.w3.org/Graphics/SVG/1.1/DTD/svg11.dtd"><svg version="1.1" xmlns="http://www.w3.org/2000/svg" viewBox="0 0 800 400" xmlns:xlink="http://www.w3.org/1999/xlink"><defs>
						<rect id="rect" x="39.375" y="39.375" width="96.25" height="96.25" rx="100"/>
						<clipPath id="clip">
							<use xlink:href="#rect"/>
						</clipPath>
						<rect id="rect1b" x="210" y="10" width="80px" height="80px" rx="80"/>
						<clipPath id="clip1b">
							<use xlink:href="#rect1b"/>
						</clipPath>
						<rect id="rect2b" x="60" y="20" width="70px" height="70px" rx="70"/>
						<clipPath id="clip2b">
							<use xlink:href="#rect2b"/>
						</clipPath>
						<rect id="rect3b" x="370" y="20" width="70px" height="70px" rx="70"/>
						<clipPath id="clip3b">
							<use xlink:href="#rect3b"/>
						</clipPath>
						<filter id="f3" x="0" y="0" width="100%" height="100%">
							<feOffset result="offOut" in="SourceAlpha" dx="0" dy="0" />
							<feGaussianBlur result="blurOut" in="offOut" stdDeviation="5" />
							<feBlend in="SourceGraphic" in2="blurOut" mode="normal" />
						</filter>
					</defs><use xlink:href="#rect" stroke-width="2" stroke="black"/><image xlink:href="../../ddragon/img/champion/splash/Gnar_0.jpg" x="0" y="-10%" width="100%"/><rect x="0" y="0" height="400" width="800" fill="#333333BC" /><image xlink:href="../../ddragon/9.9.1/img/profileicon/4086.png" clip-path="url(#clip)" y="39.375" x="39.375" height="96.25"/><image xlink:href="../../images/border/Level_125_Summoner_Icon_Border.png" x="0" y="0" height="175"/><text text-anchor="middle" font-size="10" fill="white" x="87.5" y="143.5" font-weight="600">143</text><text text-anchor="middle" alignment-baseline="middle" font-size="30" fill="#e5e5e5" x="487.5" y="25">Traumination</text><image xlink:href="../../images/rank/ranks_glow/GOLD_4.png" x="12.5" y="200" width="150" filter="url(#f3)"/><text text-anchor="middle" font-size="16" fill="white" x="87.5" y="390">Or IV</text><line x1="175" y1="0" x2="175" y2="400" stroke="#C9C9C9"/><line x1="175" y1="305" x2="290" y2="305" stroke="#C9C9C9"/><line x1="375" y1="305" x2="440" y2="305" stroke="#C9C9C9"/><line x1="600" y1="305" x2="535" y2="305" stroke="#C9C9C9"/><line x1="800" y1="305" x2="685" y2="305" stroke="#C9C9C9"/><g transform="scale(1 1) translate(237.5 250)"><use xlink:href="#rect1b" stroke-width="4" stroke="#DAA520"/><image xlink:href="../../ddragon/img/champion/tiles/Gnar_0.jpg" x="210" y="10" height="80" width="80" clip-path="url(#clip1b)"/><image xlink:href="../../images/mastery/cm7.png" x="225" y="65" height="50" width="50"/><text x="250" y="130" font-size="18" font-weight="600" fill="#DAA520" font-family="Verdana" text-anchor="middle">203176</text><use xlink:href="#rect2b" stroke-width="4" stroke="#A9A9A9"/><image xlink:href="../../ddragon/img/champion/tiles/Blitzcrank_0.jpg" x="60" y="20" height="70" width="70" clip-path="url(#clip2b)"/><image xlink:href="../../images/mastery/cm6.png" x="75" y="70" height="40" width="40"/><text x="95" y="130" font-size="18" font-weight="600" fill="#A9A9A9" font-family="Verdana" text-anchor="middle">104827</text><use xlink:href="#rect3b" stroke-width="4" stroke="#d6854C"/><image xlink:href="../../ddragon/img/champion/tiles/Chogath_0.jpg" x="370" y="20" height="70" width="70" clip-path="url(#clip3b)"/><image xlink:href="../../images/mastery/cm6.png" x="385" y="70" height="40" width="40"/><text x="405" y="130" font-size="18" font-weight="600" fill="#d6854C" font-family="Verdana" text-anchor="middle">97031</text></g><g transform="translate(200 60) scale(4 4)"><circle class="donut-ring" cx="21" cy="21" r="15.91549430918954" fill="transparent" stroke="#1D7A91" stroke-width="3"/><circle class="donut-segment" cx="21" cy="21" r="15.91549430918954" fill="transparent" stroke="#7FEFFF" stroke-width="2.25" stroke-dasharray="38.761238761239 61.238761238761" stroke-dashoffset="25" stroke-linecap="round"/><text x="21" y="20" text-anchor="middle" style="font-size: 6px" fill="#7FEFFF">38.8%</text><text x="21" y="27" text-anchor="middle" style="font-size: 4px" fill="#7FEFFF">388</text><line x1="16" y1="28" x2="26" y2="28" style="stroke:#7FEFFF;stroke-width:0.5"/><text x="21" y="32" text-anchor="middle" style="font-size: 4px" fill="#7FEFFF">1001</text><text x="21" y="44" text-anchor="middle" style="font-size: 3.5px" fill="#7FEFFF">2140762 points</text></g><text font-size="20" text-anchor="middle" x="487.5" y="110" fill="#DDD">Role principal</text><image xlink:href="../../images/lanes/Position_Grandmaster-Top.png" x="462.5" y="125" height="50"/><text font-size="16" text-anchor="middle" x="487.5" y="202" fill="#DDD">Top</text><text font-size="20" text-anchor="middle" x="680" y="110" fill="#DDD">Mode de jeu préféré</text><image xlink:href="../../images/queuetype/aram.png" x="655" y="125" height="50"/><text font-size="16" text-anchor="middle" x="680" y="202" fill="#DDD">ARAM</text></svg>